<svg width="455" height="200" viewBox="0 0 613 245" fill="none" xmlns="http://www.w3.org/2000/svg">
  <g filter="url(#filter0_d)">
  <rect x="17" width="582" height="231" rx="30" fill="#B6C5E0"/>
  <rect x="19.5" y="2.5" width="577" height="226" rx="27.5" stroke="black" stroke-width="5"/>
  </g>
  <!-- <path d="M293.047 67.2734C293.047 66.1016 292.602 65.1953 291.711 64.5547C290.836 63.8984 289.297 63.3359 287.094 62.8672C284.906 62.3984 283.164 61.8359 281.867 61.1797C280.586 60.5234 279.633 59.7422 279.008 58.8359C278.398 57.9297 278.094 56.8516 278.094 55.6016C278.094 53.5234 278.969 51.7656 280.719 50.3281C282.484 48.8906 284.734 48.1719 287.469 48.1719C290.344 48.1719 292.672 48.9141 294.453 50.3984C296.25 51.8828 297.148 53.7812 297.148 56.0938H292.789C292.789 54.9062 292.281 53.8828 291.266 53.0234C290.266 52.1641 289 51.7344 287.469 51.7344C285.891 51.7344 284.656 52.0781 283.766 52.7656C282.875 53.4531 282.43 54.3516 282.43 55.4609C282.43 56.5078 282.844 57.2969 283.672 57.8281C284.5 58.3594 285.992 58.8672 288.148 59.3516C290.32 59.8359 292.078 60.4141 293.422 61.0859C294.766 61.7578 295.758 62.5703 296.398 63.5234C297.055 64.4609 297.383 65.6094 297.383 66.9688C297.383 69.2344 296.477 71.0547 294.664 72.4297C292.852 73.7891 290.5 74.4688 287.609 74.4688C285.578 74.4688 283.781 74.1094 282.219 73.3906C280.656 72.6719 279.43 71.6719 278.539 70.3906C277.664 69.0938 277.227 67.6953 277.227 66.1953H281.562C281.641 67.6484 282.219 68.8047 283.297 69.6641C284.391 70.5078 285.828 70.9297 287.609 70.9297C289.25 70.9297 290.562 70.6016 291.547 69.9453C292.547 69.2734 293.047 68.3828 293.047 67.2734ZM307.367 51.7109C309.289 49.3516 311.789 48.1719 314.867 48.1719C320.227 48.1719 322.93 51.1953 322.977 57.2422V74H318.641V57.2188C318.625 55.3906 318.203 54.0391 317.375 53.1641C316.562 52.2891 315.289 51.8516 313.555 51.8516C312.148 51.8516 310.914 52.2266 309.852 52.9766C308.789 53.7266 307.961 54.7109 307.367 55.9297V74H303.031V38H307.367V51.7109ZM334.18 74H329.844V48.6406H334.18V74ZM329.492 41.9141C329.492 41.2109 329.703 40.6172 330.125 40.1328C330.562 39.6484 331.203 39.4062 332.047 39.4062C332.891 39.4062 333.531 39.6484 333.969 40.1328C334.406 40.6172 334.625 41.2109 334.625 41.9141C334.625 42.6172 334.406 43.2031 333.969 43.6719C333.531 44.1406 332.891 44.375 332.047 44.375C331.203 44.375 330.562 44.1406 330.125 43.6719C329.703 43.2031 329.492 42.6172 329.492 41.9141ZM362.609 61.6016C362.609 65.4766 361.719 68.5938 359.938 70.9531C358.156 73.2969 355.766 74.4688 352.766 74.4688C349.562 74.4688 347.086 73.3359 345.336 71.0703L345.125 74H341.141V38H345.477V51.4297C347.227 49.2578 349.641 48.1719 352.719 48.1719C355.797 48.1719 358.211 49.3359 359.961 51.6641C361.727 53.9922 362.609 57.1797 362.609 61.2266V61.6016ZM358.273 61.1094C358.273 58.1562 357.703 55.875 356.562 54.2656C355.422 52.6562 353.781 51.8516 351.641 51.8516C348.781 51.8516 346.727 53.1797 345.477 55.8359V66.8047C346.805 69.4609 348.875 70.7891 351.688 70.7891C353.766 70.7891 355.383 69.9844 356.539 68.375C357.695 66.7656 358.273 64.3438 358.273 61.1094ZM383.75 74C383.5 73.5 383.297 72.6094 383.141 71.3281C381.125 73.4219 378.719 74.4688 375.922 74.4688C373.422 74.4688 371.367 73.7656 369.758 72.3594C368.164 70.9375 367.367 69.1406 367.367 66.9688C367.367 64.3281 368.367 62.2812 370.367 60.8281C372.383 59.3594 375.211 58.625 378.852 58.625H383.07V56.6328C383.07 55.1172 382.617 53.9141 381.711 53.0234C380.805 52.1172 379.469 51.6641 377.703 51.6641C376.156 51.6641 374.859 52.0547 373.812 52.8359C372.766 53.6172 372.242 54.5625 372.242 55.6719H367.883C367.883 54.4062 368.328 53.1875 369.219 52.0156C370.125 50.8281 371.344 49.8906 372.875 49.2031C374.422 48.5156 376.117 48.1719 377.961 48.1719C380.883 48.1719 383.172 48.9062 384.828 50.375C386.484 51.8281 387.344 53.8359 387.406 56.3984V68.0703C387.406 70.3984 387.703 72.25 388.297 73.625V74H383.75ZM376.555 70.6953C377.914 70.6953 379.203 70.3438 380.422 69.6406C381.641 68.9375 382.523 68.0234 383.07 66.8984V61.6953H379.672C374.359 61.6953 371.703 63.25 371.703 66.3594C371.703 67.7188 372.156 68.7812 373.062 69.5469C373.969 70.3125 375.133 70.6953 376.555 70.6953ZM405.055 61.1094C405.055 57.2188 405.977 54.0938 407.82 51.7344C409.664 49.3594 412.078 48.1719 415.062 48.1719C418.031 48.1719 420.383 49.1875 422.117 51.2188V38H426.453V74H422.469L422.258 71.2812C420.523 73.4062 418.109 74.4688 415.016 74.4688C412.078 74.4688 409.68 73.2656 407.82 70.8594C405.977 68.4531 405.055 65.3125 405.055 61.4375V61.1094ZM409.391 61.6016C409.391 64.4766 409.984 66.7266 411.172 68.3516C412.359 69.9766 414 70.7891 416.094 70.7891C418.844 70.7891 420.852 69.5547 422.117 67.0859V55.4375C420.82 53.0469 418.828 51.8516 416.141 51.8516C414.016 51.8516 412.359 52.6719 411.172 54.3125C409.984 55.9531 409.391 58.3828 409.391 61.6016ZM432.055 61.0859C432.055 58.6016 432.539 56.3672 433.508 54.3828C434.492 52.3984 435.852 50.8672 437.586 49.7891C439.336 48.7109 441.328 48.1719 443.562 48.1719C447.016 48.1719 449.805 49.3672 451.93 51.7578C454.07 54.1484 455.141 57.3281 455.141 61.2969V61.6016C455.141 64.0703 454.664 66.2891 453.711 68.2578C452.773 70.2109 451.422 71.7344 449.656 72.8281C447.906 73.9219 445.891 74.4688 443.609 74.4688C440.172 74.4688 437.383 73.2734 435.242 70.8828C433.117 68.4922 432.055 65.3281 432.055 61.3906V61.0859ZM436.414 61.6016C436.414 64.4141 437.062 66.6719 438.359 68.375C439.672 70.0781 441.422 70.9297 443.609 70.9297C445.812 70.9297 447.562 70.0703 448.859 68.3516C450.156 66.6172 450.805 64.1953 450.805 61.0859C450.805 58.3047 450.141 56.0547 448.812 54.3359C447.5 52.6016 445.75 51.7344 443.562 51.7344C441.422 51.7344 439.695 52.5859 438.383 54.2891C437.07 55.9922 436.414 58.4297 436.414 61.6016ZM459.547 61.1094C459.547 57.1562 460.461 54.0156 462.289 51.6875C464.117 49.3438 466.539 48.1719 469.555 48.1719C472.648 48.1719 475.062 49.2656 476.797 51.4531L477.008 48.6406H480.969V73.3906C480.969 76.6719 479.992 79.2578 478.039 81.1484C476.102 83.0391 473.492 83.9844 470.211 83.9844C468.383 83.9844 466.594 83.5938 464.844 82.8125C463.094 82.0312 461.758 80.9609 460.836 79.6016L463.086 77C464.945 79.2969 467.219 80.4453 469.906 80.4453C472.016 80.4453 473.656 79.8516 474.828 78.6641C476.016 77.4766 476.609 75.8047 476.609 73.6484V71.4688C474.875 73.4688 472.508 74.4688 469.508 74.4688C466.539 74.4688 464.133 73.2734 462.289 70.8828C460.461 68.4922 459.547 65.2344 459.547 61.1094ZM463.906 61.6016C463.906 64.4609 464.492 66.7109 465.664 68.3516C466.836 69.9766 468.477 70.7891 470.586 70.7891C473.32 70.7891 475.328 69.5469 476.609 67.0625V55.4844C475.281 53.0625 473.289 51.8516 470.633 51.8516C468.523 51.8516 466.875 52.6719 465.688 54.3125C464.5 55.9531 463.906 58.3828 463.906 61.6016ZM486.5 61.1094C486.5 57.1562 487.414 54.0156 489.242 51.6875C491.07 49.3438 493.492 48.1719 496.508 48.1719C499.602 48.1719 502.016 49.2656 503.75 51.4531L503.961 48.6406H507.922V73.3906C507.922 76.6719 506.945 79.2578 504.992 81.1484C503.055 83.0391 500.445 83.9844 497.164 83.9844C495.336 83.9844 493.547 83.5938 491.797 82.8125C490.047 82.0312 488.711 80.9609 487.789 79.6016L490.039 77C491.898 79.2969 494.172 80.4453 496.859 80.4453C498.969 80.4453 500.609 79.8516 501.781 78.6641C502.969 77.4766 503.562 75.8047 503.562 73.6484V71.4688C501.828 73.4688 499.461 74.4688 496.461 74.4688C493.492 74.4688 491.086 73.2734 489.242 70.8828C487.414 68.4922 486.5 65.2344 486.5 61.1094ZM490.859 61.6016C490.859 64.4609 491.445 66.7109 492.617 68.3516C493.789 69.9766 495.43 70.7891 497.539 70.7891C500.273 70.7891 502.281 69.5469 503.562 67.0625V55.4844C502.234 53.0625 500.242 51.8516 497.586 51.8516C495.477 51.8516 493.828 52.6719 492.641 54.3125C491.453 55.9531 490.859 58.3828 490.859 61.6016ZM530.141 71.4922C528.453 73.4766 525.977 74.4688 522.711 74.4688C520.008 74.4688 517.945 73.6875 516.523 72.125C515.117 70.5469 514.406 68.2188 514.391 65.1406V48.6406H518.727V65.0234C518.727 68.8672 520.289 70.7891 523.414 70.7891C526.727 70.7891 528.93 69.5547 530.023 67.0859V48.6406H534.359V74H530.234L530.141 71.4922Z" fill="black"/> -->
  <!-- <path d="M291.539 108.531C290.883 108.422 290.172 108.367 289.406 108.367C286.562 108.367 284.633 109.578 283.617 112V130H279.281V104.641H283.5L283.57 107.57C284.992 105.305 287.008 104.172 289.617 104.172C290.461 104.172 291.102 104.281 291.539 104.5V108.531ZM310.266 130C310.016 129.5 309.812 128.609 309.656 127.328C307.641 129.422 305.234 130.469 302.438 130.469C299.938 130.469 297.883 129.766 296.273 128.359C294.68 126.938 293.883 125.141 293.883 122.969C293.883 120.328 294.883 118.281 296.883 116.828C298.898 115.359 301.727 114.625 305.367 114.625H309.586V112.633C309.586 111.117 309.133 109.914 308.227 109.023C307.32 108.117 305.984 107.664 304.219 107.664C302.672 107.664 301.375 108.055 300.328 108.836C299.281 109.617 298.758 110.562 298.758 111.672H294.398C294.398 110.406 294.844 109.188 295.734 108.016C296.641 106.828 297.859 105.891 299.391 105.203C300.938 104.516 302.633 104.172 304.477 104.172C307.398 104.172 309.688 104.906 311.344 106.375C313 107.828 313.859 109.836 313.922 112.398V124.07C313.922 126.398 314.219 128.25 314.812 129.625V130H310.266ZM303.07 126.695C304.43 126.695 305.719 126.344 306.938 125.641C308.156 124.938 309.039 124.023 309.586 122.898V117.695H306.188C300.875 117.695 298.219 119.25 298.219 122.359C298.219 123.719 298.672 124.781 299.578 125.547C300.484 126.312 301.648 126.695 303.07 126.695ZM324.82 104.641L324.961 107.828C326.898 105.391 329.43 104.172 332.555 104.172C337.914 104.172 340.617 107.195 340.664 113.242V130H336.328V113.219C336.312 111.391 335.891 110.039 335.062 109.164C334.25 108.289 332.977 107.852 331.242 107.852C329.836 107.852 328.602 108.227 327.539 108.977C326.477 109.727 325.648 110.711 325.055 111.93V130H320.719V104.641H324.82ZM354.281 118.258L351.562 121.094V130H347.227V94H351.562V115.773L353.883 112.984L361.781 104.641H367.055L357.188 115.234L368.203 130H363.117L354.281 118.258ZM399.609 115C398.703 116.078 397.617 116.945 396.352 117.602C395.102 118.258 393.727 118.586 392.227 118.586C390.258 118.586 388.539 118.102 387.07 117.133C385.617 116.164 384.492 114.805 383.695 113.055C382.898 111.289 382.5 109.344 382.5 107.219C382.5 104.938 382.93 102.883 383.789 101.055C384.664 99.2266 385.898 97.8281 387.492 96.8594C389.086 95.8906 390.945 95.4062 393.07 95.4062C396.445 95.4062 399.102 96.6719 401.039 99.2031C402.992 101.719 403.969 105.156 403.969 109.516V110.781C403.969 117.422 402.656 122.273 400.031 125.336C397.406 128.383 393.445 129.945 388.148 130.023H387.305V126.367H388.219C391.797 126.305 394.547 125.375 396.469 123.578C398.391 121.766 399.438 118.906 399.609 115ZM392.93 115C394.383 115 395.719 114.555 396.938 113.664C398.172 112.773 399.07 111.672 399.633 110.359V108.625C399.633 105.781 399.016 103.469 397.781 101.688C396.547 99.9062 394.984 99.0156 393.094 99.0156C391.188 99.0156 389.656 99.75 388.5 101.219C387.344 102.672 386.766 104.594 386.766 106.984C386.766 109.312 387.32 111.234 388.43 112.75C389.555 114.25 391.055 115 392.93 115ZM426.562 115C425.656 116.078 424.57 116.945 423.305 117.602C422.055 118.258 420.68 118.586 419.18 118.586C417.211 118.586 415.492 118.102 414.023 117.133C412.57 116.164 411.445 114.805 410.648 113.055C409.852 111.289 409.453 109.344 409.453 107.219C409.453 104.938 409.883 102.883 410.742 101.055C411.617 99.2266 412.852 97.8281 414.445 96.8594C416.039 95.8906 417.898 95.4062 420.023 95.4062C423.398 95.4062 426.055 96.6719 427.992 99.2031C429.945 101.719 430.922 105.156 430.922 109.516V110.781C430.922 117.422 429.609 122.273 426.984 125.336C424.359 128.383 420.398 129.945 415.102 130.023H414.258V126.367H415.172C418.75 126.305 421.5 125.375 423.422 123.578C425.344 121.766 426.391 118.906 426.562 115ZM419.883 115C421.336 115 422.672 114.555 423.891 113.664C425.125 112.773 426.023 111.672 426.586 110.359V108.625C426.586 105.781 425.969 103.469 424.734 101.688C423.5 99.9062 421.938 99.0156 420.047 99.0156C418.141 99.0156 416.609 99.75 415.453 101.219C414.297 102.672 413.719 104.594 413.719 106.984C413.719 109.312 414.273 111.234 415.383 112.75C416.508 114.25 418.008 115 419.883 115ZM453.516 115C452.609 116.078 451.523 116.945 450.258 117.602C449.008 118.258 447.633 118.586 446.133 118.586C444.164 118.586 442.445 118.102 440.977 117.133C439.523 116.164 438.398 114.805 437.602 113.055C436.805 111.289 436.406 109.344 436.406 107.219C436.406 104.938 436.836 102.883 437.695 101.055C438.57 99.2266 439.805 97.8281 441.398 96.8594C442.992 95.8906 444.852 95.4062 446.977 95.4062C450.352 95.4062 453.008 96.6719 454.945 99.2031C456.898 101.719 457.875 105.156 457.875 109.516V110.781C457.875 117.422 456.562 122.273 453.938 125.336C451.312 128.383 447.352 129.945 442.055 130.023H441.211V126.367H442.125C445.703 126.305 448.453 125.375 450.375 123.578C452.297 121.766 453.344 118.906 453.516 115ZM446.836 115C448.289 115 449.625 114.555 450.844 113.664C452.078 112.773 452.977 111.672 453.539 110.359V108.625C453.539 105.781 452.922 103.469 451.688 101.688C450.453 99.9062 448.891 99.0156 447 99.0156C445.094 99.0156 443.562 99.75 442.406 101.219C441.25 102.672 440.672 104.594 440.672 106.984C440.672 109.312 441.227 111.234 442.336 112.75C443.461 114.25 444.961 115 446.836 115Z" fill="black"/> -->
  <!-- <path d="M279.992 186H275.656V150H279.992V186ZM297.477 186.469C294.039 186.469 291.242 185.344 289.086 183.094C286.93 180.828 285.852 177.805 285.852 174.023V173.227C285.852 170.711 286.328 168.469 287.281 166.5C288.25 164.516 289.594 162.969 291.312 161.859C293.047 160.734 294.922 160.172 296.938 160.172C300.234 160.172 302.797 161.258 304.625 163.43C306.453 165.602 307.367 168.711 307.367 172.758V174.562H290.188C290.25 177.062 290.977 179.086 292.367 180.633C293.773 182.164 295.555 182.93 297.711 182.93C299.242 182.93 300.539 182.617 301.602 181.992C302.664 181.367 303.594 180.539 304.391 179.508L307.039 181.57C304.914 184.836 301.727 186.469 297.477 186.469ZM296.938 163.734C295.188 163.734 293.719 164.375 292.531 165.656C291.344 166.922 290.609 168.703 290.328 171H303.031V170.672C302.906 168.469 302.312 166.766 301.25 165.562C300.188 164.344 298.75 163.734 296.938 163.734ZM320.445 180.117L326.727 160.641H331.156L322.062 186H318.758L309.57 160.641H314L320.445 180.117ZM345.523 186.469C342.086 186.469 339.289 185.344 337.133 183.094C334.977 180.828 333.898 177.805 333.898 174.023V173.227C333.898 170.711 334.375 168.469 335.328 166.5C336.297 164.516 337.641 162.969 339.359 161.859C341.094 160.734 342.969 160.172 344.984 160.172C348.281 160.172 350.844 161.258 352.672 163.43C354.5 165.602 355.414 168.711 355.414 172.758V174.562H338.234C338.297 177.062 339.023 179.086 340.414 180.633C341.82 182.164 343.602 182.93 345.758 182.93C347.289 182.93 348.586 182.617 349.648 181.992C350.711 181.367 351.641 180.539 352.438 179.508L355.086 181.57C352.961 184.836 349.773 186.469 345.523 186.469ZM344.984 163.734C343.234 163.734 341.766 164.375 340.578 165.656C339.391 166.922 338.656 168.703 338.375 171H351.078V170.672C350.953 168.469 350.359 166.766 349.297 165.562C348.234 164.344 346.797 163.734 344.984 163.734ZM365.164 186H360.828V150H365.164V186ZM400.203 171C399.297 172.078 398.211 172.945 396.945 173.602C395.695 174.258 394.32 174.586 392.82 174.586C390.852 174.586 389.133 174.102 387.664 173.133C386.211 172.164 385.086 170.805 384.289 169.055C383.492 167.289 383.094 165.344 383.094 163.219C383.094 160.938 383.523 158.883 384.383 157.055C385.258 155.227 386.492 153.828 388.086 152.859C389.68 151.891 391.539 151.406 393.664 151.406C397.039 151.406 399.695 152.672 401.633 155.203C403.586 157.719 404.562 161.156 404.562 165.516V166.781C404.562 173.422 403.25 178.273 400.625 181.336C398 184.383 394.039 185.945 388.742 186.023H387.898V182.367H388.812C392.391 182.305 395.141 181.375 397.062 179.578C398.984 177.766 400.031 174.906 400.203 171ZM393.523 171C394.977 171 396.312 170.555 397.531 169.664C398.766 168.773 399.664 167.672 400.227 166.359V164.625C400.227 161.781 399.609 159.469 398.375 157.688C397.141 155.906 395.578 155.016 393.688 155.016C391.781 155.016 390.25 155.75 389.094 157.219C387.938 158.672 387.359 160.594 387.359 162.984C387.359 165.312 387.914 167.234 389.023 168.75C390.148 170.25 391.648 171 393.523 171ZM427.156 171C426.25 172.078 425.164 172.945 423.898 173.602C422.648 174.258 421.273 174.586 419.773 174.586C417.805 174.586 416.086 174.102 414.617 173.133C413.164 172.164 412.039 170.805 411.242 169.055C410.445 167.289 410.047 165.344 410.047 163.219C410.047 160.938 410.477 158.883 411.336 157.055C412.211 155.227 413.445 153.828 415.039 152.859C416.633 151.891 418.492 151.406 420.617 151.406C423.992 151.406 426.648 152.672 428.586 155.203C430.539 157.719 431.516 161.156 431.516 165.516V166.781C431.516 173.422 430.203 178.273 427.578 181.336C424.953 184.383 420.992 185.945 415.695 186.023H414.852V182.367H415.766C419.344 182.305 422.094 181.375 424.016 179.578C425.938 177.766 426.984 174.906 427.156 171ZM420.477 171C421.93 171 423.266 170.555 424.484 169.664C425.719 168.773 426.617 167.672 427.18 166.359V164.625C427.18 161.781 426.562 159.469 425.328 157.688C424.094 155.906 422.531 155.016 420.641 155.016C418.734 155.016 417.203 155.75 416.047 157.219C414.891 158.672 414.312 160.594 414.312 162.984C414.312 165.312 414.867 167.234 415.977 168.75C417.102 170.25 418.602 171 420.477 171ZM454.109 171C453.203 172.078 452.117 172.945 450.852 173.602C449.602 174.258 448.227 174.586 446.727 174.586C444.758 174.586 443.039 174.102 441.57 173.133C440.117 172.164 438.992 170.805 438.195 169.055C437.398 167.289 437 165.344 437 163.219C437 160.938 437.43 158.883 438.289 157.055C439.164 155.227 440.398 153.828 441.992 152.859C443.586 151.891 445.445 151.406 447.57 151.406C450.945 151.406 453.602 152.672 455.539 155.203C457.492 157.719 458.469 161.156 458.469 165.516V166.781C458.469 173.422 457.156 178.273 454.531 181.336C451.906 184.383 447.945 185.945 442.648 186.023H441.805V182.367H442.719C446.297 182.305 449.047 181.375 450.969 179.578C452.891 177.766 453.938 174.906 454.109 171ZM447.43 171C448.883 171 450.219 170.555 451.438 169.664C452.672 168.773 453.57 167.672 454.133 166.359V164.625C454.133 161.781 453.516 159.469 452.281 157.688C451.047 155.906 449.484 155.016 447.594 155.016C445.688 155.016 444.156 155.75 443 157.219C441.844 158.672 441.266 160.594 441.266 162.984C441.266 165.312 441.82 167.234 442.93 168.75C444.055 170.25 445.555 171 447.43 171Z" fill="black"/> -->
  <g filter="url(#filter1_d)">
  <circle cx="166" cy="114" r="85" fill="#858F9C"/>
  </g>
  <rect x="2.5" y="74.5" width="56" height="24" rx="12" fill="#FF9AC5" stroke="black" stroke-width="5"/>
  <rect x="2.5" y="130.5" width="56" height="24" rx="12" fill="#FF9AC5" stroke="black" stroke-width="5"/>
  <defs>
  <filter id="filter0_d" x="17" y="0" width="596" height="245" filterUnits="userSpaceOnUse" color-interpolation-filters="sRGB">
  <feFlood flood-opacity="0" result="BackgroundImageFix"/>
  <feColorMatrix in="SourceAlpha" type="matrix" values="0 0 0 0 0 0 0 0 0 0 0 0 0 0 0 0 0 0 127 0"/>
  <feOffset dx="10" dy="10"/>
  <feGaussianBlur stdDeviation="2"/>
  <feColorMatrix type="matrix" values="0 0 0 0 0 0 0 0 0 0 0 0 0 0 0 0 0 0 0.5 0"/>
  <feBlend mode="normal" in2="BackgroundImageFix" result="effect1_dropShadow"/>
  <feBlend mode="normal" in="SourceGraphic" in2="effect1_dropShadow" result="shape"/>
  </filter>
  <filter id="filter1_d" x="81" y="29" width="179" height="179" filterUnits="userSpaceOnUse" color-interpolation-filters="sRGB">
  <feFlood flood-opacity="0" result="BackgroundImageFix"/>
  <feColorMatrix in="SourceAlpha" type="matrix" values="0 0 0 0 0 0 0 0 0 0 0 0 0 0 0 0 0 0 127 0"/>
  <feOffset dx="5" dy="5"/>
  <feGaussianBlur stdDeviation="2"/>
  <feColorMatrix type="matrix" values="0 0 0 0 0 0 0 0 0 0 0 0 0 0 0 0 0 0 0.5 0"/>
  <feBlend mode="normal" in2="BackgroundImageFix" result="effect1_dropShadow"/>
  <feBlend mode="normal" in="SourceGraphic" in2="effect1_dropShadow" result="shape"/>
  </filter>
  </defs>
</svg>
