<svg width="1851" height="970" viewBox="0 0 1851 970" fill="none" xmlns="http://www.w3.org/2000/svg">
<circle cx="80.5" cy="902.5" r="60.5" fill="white" fill-opacity="0.15"/>
<circle cx="1220.5" cy="905.5" r="60.5" fill="white" fill-opacity="0.15"/>
<circle cx="1505.5" cy="905.5" r="60.5" fill="white" fill-opacity="0.15"/>
<circle cx="1790.5" cy="909.5" r="60.5" fill="white" fill-opacity="0.15"/>
<circle cx="650.5" cy="902.5" r="60.5" fill="white" fill-opacity="0.15"/>
<circle cx="365.5" cy="902.5" r="60.5" fill="white" fill-opacity="0.15"/>
<circle cx="1068.5" cy="691.5" r="60.5" fill="white" fill-opacity="0.15"/>
<circle cx="1353.5" cy="691.5" r="60.5" fill="white" fill-opacity="0.15"/>
<circle cx="1638.5" cy="695.5" r="60.5" fill="white" fill-opacity="0.15"/>
<circle cx="498.5" cy="688.5" r="60.5" fill="white" fill-opacity="0.15"/>
<circle cx="783.5" cy="688.5" r="60.5" fill="white" fill-opacity="0.15"/>
<circle cx="213.5" cy="688.5" r="60.5" fill="white" fill-opacity="0.15"/>
<circle cx="80.5" cy="481.5" r="60.5" fill="white" fill-opacity="0.15"/>
<circle cx="1220.5" cy="484.5" r="60.5" fill="white" fill-opacity="0.15"/>
<circle cx="1505.5" cy="484.5" r="60.5" fill="white" fill-opacity="0.15"/>
<circle cx="1790.5" cy="488.5" r="60.5" fill="white" fill-opacity="0.15"/>
<circle cx="650.5" cy="481.5" r="60.5" fill="white" fill-opacity="0.15"/>
<circle cx="365.5" cy="481.5" r="60.5" fill="white" fill-opacity="0.15"/>
<circle cx="1353.5" cy="270.5" r="60.5" fill="white" fill-opacity="0.15"/>
<circle cx="1638.5" cy="274.5" r="60.5" fill="white" fill-opacity="0.15"/>
<circle cx="498.5" cy="267.5" r="60.5" fill="white" fill-opacity="0.15"/>
<circle cx="213.5" cy="267.5" r="60.5" fill="white" fill-opacity="0.15"/>
<circle cx="1220.5" cy="63.5" r="60.5" fill="white" fill-opacity="0.15"/>
<circle cx="1505.5" cy="63.5" r="60.5" fill="white" fill-opacity="0.15"/>
<circle cx="1790.5" cy="67.5" r="60.5" fill="white" fill-opacity="0.15"/>
<circle cx="650.5" cy="60.5" r="60.5" fill="white" fill-opacity="0.15"/>
<circle cx="935.5" cy="60.5" r="60.5" fill="white" fill-opacity="0.15"/>
<path fill-rule="evenodd" clip-rule="evenodd" d="M1626.5 231.407C1620.75 231.407 1616.08 236.071 1616.08 241.824C1616.08 247.577 1620.75 252.241 1626.5 252.241C1632.25 252.241 1636.92 247.577 1636.92 241.824C1636.92 236.071 1632.25 231.407 1626.5 231.407ZM1607.75 248.074C1602 248.074 1597.33 252.738 1597.33 258.491C1597.33 264.244 1602 268.907 1607.75 268.907C1613.5 268.907 1618.17 264.244 1618.17 258.491C1618.17 252.738 1613.5 248.074 1607.75 248.074ZM1641.08 241.824C1641.08 236.071 1645.75 231.407 1651.5 231.407C1657.25 231.407 1661.92 236.071 1661.92 241.824C1661.92 247.577 1657.25 252.241 1651.5 252.241C1645.75 252.241 1641.08 247.577 1641.08 241.824ZM1670.25 248.074C1664.5 248.074 1659.83 252.738 1659.83 258.491C1659.83 264.244 1664.5 268.907 1670.25 268.907C1676 268.907 1680.67 264.244 1680.67 258.491C1680.67 252.738 1676 248.074 1670.25 248.074ZM1657.52 276.43C1658.72 277.853 1659.95 279.298 1661.25 280.824C1661.57 281.149 1661.9 281.475 1662.24 281.805C1667.48 287.01 1673.34 292.83 1672.12 300.824C1670.92 305.032 1667.87 309.282 1662.42 310.491C1661.02 310.759 1658.2 310.392 1654.57 309.918C1650.31 309.362 1644.91 308.657 1639.33 308.657H1638.58C1633.05 308.657 1627.7 309.362 1623.45 309.92C1619.77 310.406 1616.91 310.781 1615.5 310.491C1610.04 309.282 1607 305.074 1605.79 300.824C1604.62 292.873 1610.47 287.057 1615.72 281.854C1616.05 281.522 1616.38 281.193 1616.71 280.866C1619.06 278.142 1621.15 275.674 1623.31 273.134C1624.51 271.712 1625.74 270.267 1627.04 268.741C1629 266.491 1631.42 264.241 1634.33 263.241C1634.79 263.074 1635.25 262.949 1635.71 262.866C1636.79 262.657 1637.92 262.657 1639 262.657C1640.08 262.657 1641.21 262.657 1642.25 262.824C1642.71 262.907 1643.17 263.032 1643.62 263.199C1646.54 264.199 1649 266.449 1650.92 268.699C1653.27 271.423 1655.36 273.891 1657.52 276.43Z" fill="black" fill-opacity="0.54"/>
<path fill-rule="evenodd" clip-rule="evenodd" d="M1207.5 31.4075C1201.75 31.4075 1197.08 36.0712 1197.08 41.8241C1197.08 47.5771 1201.75 52.2408 1207.5 52.2408C1213.25 52.2408 1217.92 47.5771 1217.92 41.8241C1217.92 36.0712 1213.25 31.4075 1207.5 31.4075ZM1188.75 48.0741C1183 48.0741 1178.33 52.7378 1178.33 58.4908C1178.33 64.2438 1183 68.9075 1188.75 68.9075C1194.5 68.9075 1199.17 64.2438 1199.17 58.4908C1199.17 52.7378 1194.5 48.0741 1188.75 48.0741ZM1222.08 41.8241C1222.08 36.0712 1226.75 31.4075 1232.5 31.4075C1238.25 31.4075 1242.92 36.0712 1242.92 41.8241C1242.92 47.5771 1238.25 52.2408 1232.5 52.2408C1226.75 52.2408 1222.08 47.5771 1222.08 41.8241ZM1251.25 48.0741C1245.5 48.0741 1240.83 52.7378 1240.83 58.4908C1240.83 64.2438 1245.5 68.9075 1251.25 68.9075C1257 68.9075 1261.67 64.2438 1261.67 58.4908C1261.67 52.7378 1257 48.0741 1251.25 48.0741ZM1238.52 76.4304C1239.72 77.853 1240.95 79.2983 1242.25 80.8241C1242.57 81.1488 1242.9 81.4755 1243.24 81.8046C1248.48 87.0098 1254.34 92.8297 1253.12 100.824C1251.92 105.032 1248.87 109.282 1243.42 110.491C1242.02 110.759 1239.2 110.392 1235.57 109.918C1231.31 109.362 1225.91 108.657 1220.33 108.657H1219.58C1214.05 108.657 1208.7 109.362 1204.45 109.92C1200.77 110.406 1197.91 110.781 1196.5 110.491C1191.04 109.282 1188 105.074 1186.79 100.824C1185.62 92.8726 1191.47 87.0568 1196.72 81.8537C1197.05 81.522 1197.38 81.1929 1197.71 80.8658C1200.06 78.1415 1202.15 75.6741 1204.31 73.1342C1205.51 71.7117 1206.74 70.2665 1208.04 68.7408C1210 66.4908 1212.42 64.2408 1215.33 63.2408C1215.79 63.0741 1216.25 62.9491 1216.71 62.8658C1217.79 62.6575 1218.92 62.6575 1220 62.6575C1221.08 62.6575 1222.21 62.6575 1223.25 62.8241C1223.71 62.9075 1224.17 63.0325 1224.62 63.1991C1227.54 64.1991 1230 66.4491 1231.92 68.6991C1234.27 71.4233 1236.36 73.8907 1238.52 76.4304Z" fill="black" fill-opacity="0.54"/>
<path fill-rule="evenodd" clip-rule="evenodd" d="M922.5 27.4075C916.747 27.4075 912.083 32.0712 912.083 37.8241C912.083 43.5771 916.747 48.2408 922.5 48.2408C928.253 48.2408 932.917 43.5771 932.917 37.8241C932.917 32.0712 928.253 27.4075 922.5 27.4075ZM903.75 44.0741C897.997 44.0741 893.333 48.7378 893.333 54.4908C893.333 60.2438 897.997 64.9075 903.75 64.9075C909.503 64.9075 914.167 60.2438 914.167 54.4908C914.167 48.7378 909.503 44.0741 903.75 44.0741ZM937.083 37.8241C937.083 32.0712 941.747 27.4075 947.5 27.4075C953.253 27.4075 957.917 32.0712 957.917 37.8241C957.917 43.5771 953.253 48.2408 947.5 48.2408C941.747 48.2408 937.083 43.5771 937.083 37.8241ZM966.25 44.0741C960.497 44.0741 955.833 48.7378 955.833 54.4908C955.833 60.2438 960.497 64.9075 966.25 64.9075C972.003 64.9075 976.667 60.2438 976.667 54.4908C976.667 48.7378 972.003 44.0741 966.25 44.0741ZM953.515 72.4304C954.722 73.853 955.948 75.2983 957.25 76.8241C957.575 77.1488 957.904 77.4755 958.235 77.8046C963.478 83.0098 969.34 88.8297 968.125 96.8241C966.917 101.032 963.875 105.282 958.417 106.491C957.017 106.759 954.205 106.392 950.57 105.918C946.307 105.362 940.911 104.657 935.333 104.657H934.583C929.052 104.657 923.701 105.362 919.454 105.92C915.767 106.406 912.914 106.781 911.5 106.491C906.042 105.282 903 101.074 901.792 96.8241C900.617 88.8726 906.475 83.0568 911.716 77.8537C912.05 77.522 912.381 77.1929 912.708 76.8658C915.059 74.1415 917.152 71.6741 919.307 69.1342C920.514 67.7117 921.74 66.2665 923.042 64.7408C925 62.4908 927.417 60.2408 930.333 59.2408C930.792 59.0741 931.25 58.9491 931.708 58.8658C932.792 58.6575 933.917 58.6575 935 58.6575C936.083 58.6575 937.208 58.6575 938.25 58.8241C938.708 58.9075 939.167 59.0325 939.625 59.1991C942.542 60.1991 945 62.4491 946.917 64.6991C949.267 67.4233 951.36 69.8907 953.515 72.4304Z" fill="black" fill-opacity="0.54"/>
<path fill-rule="evenodd" clip-rule="evenodd" d="M1492.5 23.4075C1486.75 23.4075 1482.08 28.0712 1482.08 33.8241C1482.08 39.5771 1486.75 44.2408 1492.5 44.2408C1498.25 44.2408 1502.92 39.5771 1502.92 33.8241C1502.92 28.0712 1498.25 23.4075 1492.5 23.4075ZM1473.75 40.0741C1468 40.0741 1463.33 44.7378 1463.33 50.4908C1463.33 56.2438 1468 60.9075 1473.75 60.9075C1479.5 60.9075 1484.17 56.2438 1484.17 50.4908C1484.17 44.7378 1479.5 40.0741 1473.75 40.0741ZM1507.08 33.8241C1507.08 28.0712 1511.75 23.4075 1517.5 23.4075C1523.25 23.4075 1527.92 28.0712 1527.92 33.8241C1527.92 39.5771 1523.25 44.2408 1517.5 44.2408C1511.75 44.2408 1507.08 39.5771 1507.08 33.8241ZM1536.25 40.0741C1530.5 40.0741 1525.83 44.7378 1525.83 50.4908C1525.83 56.2438 1530.5 60.9075 1536.25 60.9075C1542 60.9075 1546.67 56.2438 1546.67 50.4908C1546.67 44.7378 1542 40.0741 1536.25 40.0741ZM1523.52 68.4304C1524.72 69.853 1525.95 71.2983 1527.25 72.8241C1527.57 73.1488 1527.9 73.4755 1528.24 73.8046C1533.48 79.0098 1539.34 84.8297 1538.12 92.8241C1536.92 97.0324 1533.87 101.282 1528.42 102.491C1527.02 102.759 1524.2 102.392 1520.57 101.918C1516.31 101.362 1510.91 100.657 1505.33 100.657H1504.58C1499.05 100.657 1493.7 101.362 1489.45 101.92C1485.77 102.406 1482.91 102.781 1481.5 102.491C1476.04 101.282 1473 97.0741 1471.79 92.8241C1470.62 84.8726 1476.47 79.0568 1481.72 73.8537C1482.05 73.522 1482.38 73.1929 1482.71 72.8658C1485.06 70.1415 1487.15 67.6741 1489.31 65.1342C1490.51 63.7117 1491.74 62.2665 1493.04 60.7408C1495 58.4908 1497.42 56.2408 1500.33 55.2408C1500.79 55.0741 1501.25 54.9491 1501.71 54.8658C1502.79 54.6575 1503.92 54.6575 1505 54.6575C1506.08 54.6575 1507.21 54.6575 1508.25 54.8241C1508.71 54.9075 1509.17 55.0325 1509.62 55.1991C1512.54 56.1991 1515 58.4491 1516.92 60.6991C1519.27 63.4233 1521.36 65.8907 1523.52 68.4304Z" fill="black" fill-opacity="0.54"/>
<path fill-rule="evenodd" clip-rule="evenodd" d="M635.5 23.4075C629.747 23.4075 625.083 28.0712 625.083 33.8241C625.083 39.5771 629.747 44.2408 635.5 44.2408C641.253 44.2408 645.917 39.5771 645.917 33.8241C645.917 28.0712 641.253 23.4075 635.5 23.4075ZM616.75 40.0741C610.997 40.0741 606.333 44.7378 606.333 50.4908C606.333 56.2438 610.997 60.9075 616.75 60.9075C622.503 60.9075 627.167 56.2438 627.167 50.4908C627.167 44.7378 622.503 40.0741 616.75 40.0741ZM650.083 33.8241C650.083 28.0712 654.747 23.4075 660.5 23.4075C666.253 23.4075 670.917 28.0712 670.917 33.8241C670.917 39.5771 666.253 44.2408 660.5 44.2408C654.747 44.2408 650.083 39.5771 650.083 33.8241ZM679.25 40.0741C673.497 40.0741 668.833 44.7378 668.833 50.4908C668.833 56.2438 673.497 60.9075 679.25 60.9075C685.003 60.9075 689.667 56.2438 689.667 50.4908C689.667 44.7378 685.003 40.0741 679.25 40.0741ZM666.515 68.4304C667.722 69.853 668.948 71.2983 670.25 72.8241C670.575 73.1488 670.904 73.4755 671.235 73.8046C676.478 79.0098 682.34 84.8297 681.125 92.8241C679.917 97.0324 676.875 101.282 671.417 102.491C670.017 102.759 667.205 102.392 663.57 101.918C659.307 101.362 653.911 100.657 648.333 100.657H647.583C642.052 100.657 636.701 101.362 632.454 101.92C628.767 102.406 625.914 102.781 624.5 102.491C619.042 101.282 616 97.0741 614.792 92.8241C613.617 84.8726 619.475 79.0568 624.716 73.8537C625.05 73.522 625.381 73.1929 625.708 72.8658C628.059 70.1415 630.152 67.6741 632.307 65.1342C633.514 63.7117 634.74 62.2665 636.042 60.7408C638 58.4908 640.417 56.2408 643.333 55.2408C643.792 55.0741 644.25 54.9491 644.708 54.8658C645.792 54.6575 646.917 54.6575 648 54.6575C649.083 54.6575 650.208 54.6575 651.25 54.8241C651.708 54.9075 652.167 55.0325 652.625 55.1991C655.542 56.1991 658 58.4491 659.917 60.6991C662.267 63.4233 664.36 65.8907 666.515 68.4304Z" fill="black" fill-opacity="0.54"/>
<path fill-rule="evenodd" clip-rule="evenodd" d="M485.5 231.407C479.747 231.407 475.083 236.071 475.083 241.824C475.083 247.577 479.747 252.241 485.5 252.241C491.253 252.241 495.917 247.577 495.917 241.824C495.917 236.071 491.253 231.407 485.5 231.407ZM466.75 248.074C460.997 248.074 456.333 252.738 456.333 258.491C456.333 264.244 460.997 268.907 466.75 268.907C472.503 268.907 477.167 264.244 477.167 258.491C477.167 252.738 472.503 248.074 466.75 248.074ZM500.083 241.824C500.083 236.071 504.747 231.407 510.5 231.407C516.253 231.407 520.917 236.071 520.917 241.824C520.917 247.577 516.253 252.241 510.5 252.241C504.747 252.241 500.083 247.577 500.083 241.824ZM529.25 248.074C523.497 248.074 518.833 252.738 518.833 258.491C518.833 264.244 523.497 268.907 529.25 268.907C535.003 268.907 539.667 264.244 539.667 258.491C539.667 252.738 535.003 248.074 529.25 248.074ZM516.515 276.43C517.722 277.853 518.949 279.298 520.25 280.824C520.575 281.149 520.904 281.475 521.235 281.805C526.478 287.01 532.34 292.83 531.125 300.824C529.917 305.032 526.875 309.282 521.417 310.491C520.017 310.759 517.205 310.392 513.57 309.918C509.307 309.362 503.911 308.657 498.333 308.657H497.583C492.053 308.657 486.701 309.362 482.454 309.92C478.767 310.406 475.914 310.781 474.5 310.491C469.042 309.282 466 305.074 464.792 300.824C463.617 292.873 469.475 287.057 474.716 281.854C475.05 281.522 475.381 281.193 475.708 280.866C478.059 278.142 480.152 275.674 482.307 273.134C483.514 271.712 484.74 270.267 486.042 268.741C488 266.491 490.417 264.241 493.333 263.241C493.792 263.074 494.25 262.949 494.708 262.866C495.792 262.657 496.917 262.657 498 262.657C499.083 262.657 500.208 262.657 501.25 262.824C501.708 262.907 502.167 263.032 502.625 263.199C505.542 264.199 508 266.449 509.917 268.699C512.267 271.423 514.36 273.891 516.515 276.43Z" fill="black" fill-opacity="0.54"/>
<path fill-rule="evenodd" clip-rule="evenodd" d="M200.5 231.407C194.747 231.407 190.083 236.071 190.083 241.824C190.083 247.577 194.747 252.241 200.5 252.241C206.253 252.241 210.917 247.577 210.917 241.824C210.917 236.071 206.253 231.407 200.5 231.407ZM181.75 248.074C175.997 248.074 171.333 252.738 171.333 258.491C171.333 264.244 175.997 268.907 181.75 268.907C187.503 268.907 192.167 264.244 192.167 258.491C192.167 252.738 187.503 248.074 181.75 248.074ZM215.083 241.824C215.083 236.071 219.747 231.407 225.5 231.407C231.253 231.407 235.917 236.071 235.917 241.824C235.917 247.577 231.253 252.241 225.5 252.241C219.747 252.241 215.083 247.577 215.083 241.824ZM244.25 248.074C238.497 248.074 233.833 252.738 233.833 258.491C233.833 264.244 238.497 268.907 244.25 268.907C250.003 268.907 254.667 264.244 254.667 258.491C254.667 252.738 250.003 248.074 244.25 248.074ZM231.515 276.43C232.722 277.853 233.949 279.298 235.25 280.824C235.575 281.149 235.904 281.475 236.235 281.805C241.478 287.01 247.34 292.83 246.125 300.824C244.917 305.032 241.875 309.282 236.417 310.491C235.017 310.759 232.205 310.392 228.57 309.918C224.307 309.362 218.911 308.657 213.333 308.657H212.583C207.053 308.657 201.701 309.362 197.454 309.92C193.767 310.406 190.914 310.781 189.5 310.491C184.042 309.282 181 305.074 179.792 300.824C178.617 292.873 184.475 287.057 189.716 281.854C190.05 281.522 190.381 281.193 190.708 280.866C193.059 278.142 195.152 275.674 197.307 273.134C198.514 271.712 199.74 270.267 201.042 268.741C203 266.491 205.417 264.241 208.333 263.241C208.792 263.074 209.25 262.949 209.708 262.866C210.792 262.657 211.917 262.657 213 262.657C214.083 262.657 215.208 262.657 216.25 262.824C216.708 262.907 217.167 263.032 217.625 263.199C220.542 264.199 223 266.449 224.917 268.699C227.267 271.423 229.36 273.891 231.515 276.43Z" fill="black" fill-opacity="0.54"/>
<path fill-rule="evenodd" clip-rule="evenodd" d="M67.5 442.407C61.7471 442.407 57.0834 447.071 57.0834 452.824C57.0834 458.577 61.7471 463.241 67.5 463.241C73.253 463.241 77.9167 458.577 77.9167 452.824C77.9167 447.071 73.253 442.407 67.5 442.407ZM48.75 459.074C42.9971 459.074 38.3334 463.738 38.3334 469.491C38.3334 475.244 42.9971 479.907 48.75 479.907C54.503 479.907 59.1667 475.244 59.1667 469.491C59.1667 463.738 54.503 459.074 48.75 459.074ZM82.0834 452.824C82.0834 447.071 86.7471 442.407 92.5001 442.407C98.253 442.407 102.917 447.071 102.917 452.824C102.917 458.577 98.253 463.241 92.5001 463.241C86.7471 463.241 82.0834 458.577 82.0834 452.824ZM111.25 459.074C105.497 459.074 100.833 463.738 100.833 469.491C100.833 475.244 105.497 479.907 111.25 479.907C117.003 479.907 121.667 475.244 121.667 469.491C121.667 463.738 117.003 459.074 111.25 459.074ZM98.5153 487.43C99.7223 488.853 100.949 490.298 102.25 491.824C102.575 492.149 102.904 492.475 103.235 492.805C108.478 498.01 114.34 503.83 113.125 511.824C111.917 516.032 108.875 520.282 103.417 521.491C102.017 521.759 99.205 521.392 95.57 520.918C91.3067 520.362 85.9111 519.657 80.3333 519.657H79.5833C74.0525 519.657 68.7007 520.362 64.4544 520.92C60.7673 521.406 57.9137 521.781 56.5 521.491C51.0417 520.282 48 516.074 46.7917 511.824C45.6166 503.873 51.4747 498.057 56.7157 492.854C57.0497 492.522 57.3813 492.193 57.7083 491.866C60.0587 489.142 62.1522 486.674 64.3072 484.134C65.5141 482.712 66.7403 481.267 68.0417 479.741C70 477.491 72.4167 475.241 75.3333 474.241C75.7917 474.074 76.25 473.949 76.7083 473.866C77.7917 473.657 78.9167 473.657 80 473.657C81.0833 473.657 82.2083 473.657 83.25 473.824C83.7083 473.907 84.1667 474.032 84.625 474.199C87.5417 475.199 90 477.449 91.9167 479.699C94.2669 482.423 96.3604 484.891 98.5153 487.43Z" fill="black" fill-opacity="0.54"/>
<path fill-rule="evenodd" clip-rule="evenodd" d="M352.5 449.407C346.747 449.407 342.083 454.071 342.083 459.824C342.083 465.577 346.747 470.241 352.5 470.241C358.253 470.241 362.917 465.577 362.917 459.824C362.917 454.071 358.253 449.407 352.5 449.407ZM333.75 466.074C327.997 466.074 323.333 470.738 323.333 476.491C323.333 482.244 327.997 486.907 333.75 486.907C339.503 486.907 344.167 482.244 344.167 476.491C344.167 470.738 339.503 466.074 333.75 466.074ZM367.083 459.824C367.083 454.071 371.747 449.407 377.5 449.407C383.253 449.407 387.917 454.071 387.917 459.824C387.917 465.577 383.253 470.241 377.5 470.241C371.747 470.241 367.083 465.577 367.083 459.824ZM396.25 466.074C390.497 466.074 385.833 470.738 385.833 476.491C385.833 482.244 390.497 486.907 396.25 486.907C402.003 486.907 406.667 482.244 406.667 476.491C406.667 470.738 402.003 466.074 396.25 466.074ZM383.515 494.43C384.722 495.853 385.949 497.298 387.25 498.824C387.575 499.149 387.904 499.475 388.235 499.805C393.478 505.01 399.34 510.83 398.125 518.824C396.917 523.032 393.875 527.282 388.417 528.491C387.017 528.759 384.205 528.392 380.57 527.918C376.307 527.362 370.911 526.657 365.333 526.657H364.583C359.053 526.657 353.701 527.362 349.454 527.92C345.767 528.406 342.914 528.781 341.5 528.491C336.042 527.282 333 523.074 331.792 518.824C330.617 510.873 336.475 505.057 341.716 499.854C342.05 499.522 342.381 499.193 342.708 498.866C345.059 496.142 347.152 493.674 349.307 491.134C350.514 489.712 351.74 488.267 353.042 486.741C355 484.491 357.417 482.241 360.333 481.241C360.792 481.074 361.25 480.949 361.708 480.866C362.792 480.657 363.917 480.657 365 480.657C366.083 480.657 367.208 480.657 368.25 480.824C368.708 480.907 369.167 481.032 369.625 481.199C372.542 482.199 375 484.449 376.917 486.699C379.267 489.423 381.36 491.891 383.515 494.43Z" fill="black" fill-opacity="0.54"/>
<path fill-rule="evenodd" clip-rule="evenodd" d="M637.5 442.407C631.747 442.407 627.083 447.071 627.083 452.824C627.083 458.577 631.747 463.241 637.5 463.241C643.253 463.241 647.917 458.577 647.917 452.824C647.917 447.071 643.253 442.407 637.5 442.407ZM618.75 459.074C612.997 459.074 608.333 463.738 608.333 469.491C608.333 475.244 612.997 479.907 618.75 479.907C624.503 479.907 629.167 475.244 629.167 469.491C629.167 463.738 624.503 459.074 618.75 459.074ZM652.083 452.824C652.083 447.071 656.747 442.407 662.5 442.407C668.253 442.407 672.917 447.071 672.917 452.824C672.917 458.577 668.253 463.241 662.5 463.241C656.747 463.241 652.083 458.577 652.083 452.824ZM681.25 459.074C675.497 459.074 670.833 463.738 670.833 469.491C670.833 475.244 675.497 479.907 681.25 479.907C687.003 479.907 691.667 475.244 691.667 469.491C691.667 463.738 687.003 459.074 681.25 459.074ZM668.515 487.43C669.722 488.853 670.948 490.298 672.25 491.824C672.575 492.149 672.904 492.475 673.235 492.805C678.478 498.01 684.34 503.83 683.125 511.824C681.917 516.032 678.875 520.282 673.417 521.491C672.017 521.759 669.205 521.392 665.57 520.918C661.307 520.362 655.911 519.657 650.333 519.657H649.583C644.052 519.657 638.701 520.362 634.454 520.92C630.767 521.406 627.914 521.781 626.5 521.491C621.042 520.282 618 516.074 616.792 511.824C615.617 503.873 621.475 498.057 626.716 492.854C627.05 492.522 627.381 492.193 627.708 491.866C630.059 489.142 632.152 486.674 634.307 484.134C635.514 482.712 636.74 481.267 638.042 479.741C640 477.491 642.417 475.241 645.333 474.241C645.792 474.074 646.25 473.949 646.708 473.866C647.792 473.657 648.917 473.657 650 473.657C651.083 473.657 652.208 473.657 653.25 473.824C653.708 473.907 654.167 474.032 654.625 474.199C657.542 475.199 660 477.449 661.917 479.699C664.267 482.423 666.36 484.891 668.515 487.43Z" fill="black" fill-opacity="0.54"/>
<path fill-rule="evenodd" clip-rule="evenodd" d="M1208.5 442.407C1202.75 442.407 1198.08 447.071 1198.08 452.824C1198.08 458.577 1202.75 463.241 1208.5 463.241C1214.25 463.241 1218.92 458.577 1218.92 452.824C1218.92 447.071 1214.25 442.407 1208.5 442.407ZM1189.75 459.074C1184 459.074 1179.33 463.738 1179.33 469.491C1179.33 475.244 1184 479.907 1189.75 479.907C1195.5 479.907 1200.17 475.244 1200.17 469.491C1200.17 463.738 1195.5 459.074 1189.75 459.074ZM1223.08 452.824C1223.08 447.071 1227.75 442.407 1233.5 442.407C1239.25 442.407 1243.92 447.071 1243.92 452.824C1243.92 458.577 1239.25 463.241 1233.5 463.241C1227.75 463.241 1223.08 458.577 1223.08 452.824ZM1252.25 459.074C1246.5 459.074 1241.83 463.738 1241.83 469.491C1241.83 475.244 1246.5 479.907 1252.25 479.907C1258 479.907 1262.67 475.244 1262.67 469.491C1262.67 463.738 1258 459.074 1252.25 459.074ZM1239.52 487.43C1240.72 488.853 1241.95 490.298 1243.25 491.824C1243.57 492.149 1243.9 492.475 1244.24 492.805C1249.48 498.01 1255.34 503.83 1254.12 511.824C1252.92 516.032 1249.87 520.282 1244.42 521.491C1243.02 521.759 1240.2 521.392 1236.57 520.918C1232.31 520.362 1226.91 519.657 1221.33 519.657H1220.58C1215.05 519.657 1209.7 520.362 1205.45 520.92C1201.77 521.406 1198.91 521.781 1197.5 521.491C1192.04 520.282 1189 516.074 1187.79 511.824C1186.62 503.873 1192.47 498.057 1197.72 492.854C1198.05 492.522 1198.38 492.193 1198.71 491.866C1201.06 489.142 1203.15 486.674 1205.31 484.134C1206.51 482.712 1207.74 481.267 1209.04 479.741C1211 477.491 1213.42 475.241 1216.33 474.241C1216.79 474.074 1217.25 473.949 1217.71 473.866C1218.79 473.657 1219.92 473.657 1221 473.657C1222.08 473.657 1223.21 473.657 1224.25 473.824C1224.71 473.907 1225.17 474.032 1225.62 474.199C1228.54 475.199 1231 477.449 1232.92 479.699C1235.27 482.423 1237.36 484.891 1239.52 487.43Z" fill="black" fill-opacity="0.54"/>
<path fill-rule="evenodd" clip-rule="evenodd" d="M1492.5 449.407C1486.75 449.407 1482.08 454.071 1482.08 459.824C1482.08 465.577 1486.75 470.241 1492.5 470.241C1498.25 470.241 1502.92 465.577 1502.92 459.824C1502.92 454.071 1498.25 449.407 1492.5 449.407ZM1473.75 466.074C1468 466.074 1463.33 470.738 1463.33 476.491C1463.33 482.244 1468 486.907 1473.75 486.907C1479.5 486.907 1484.17 482.244 1484.17 476.491C1484.17 470.738 1479.5 466.074 1473.75 466.074ZM1507.08 459.824C1507.08 454.071 1511.75 449.407 1517.5 449.407C1523.25 449.407 1527.92 454.071 1527.92 459.824C1527.92 465.577 1523.25 470.241 1517.5 470.241C1511.75 470.241 1507.08 465.577 1507.08 459.824ZM1536.25 466.074C1530.5 466.074 1525.83 470.738 1525.83 476.491C1525.83 482.244 1530.5 486.907 1536.25 486.907C1542 486.907 1546.67 482.244 1546.67 476.491C1546.67 470.738 1542 466.074 1536.25 466.074ZM1523.52 494.43C1524.72 495.853 1525.95 497.298 1527.25 498.824C1527.57 499.149 1527.9 499.475 1528.24 499.805C1533.48 505.01 1539.34 510.83 1538.12 518.824C1536.92 523.032 1533.87 527.282 1528.42 528.491C1527.02 528.759 1524.2 528.392 1520.57 527.918C1516.31 527.362 1510.91 526.657 1505.33 526.657H1504.58C1499.05 526.657 1493.7 527.362 1489.45 527.92C1485.77 528.406 1482.91 528.781 1481.5 528.491C1476.04 527.282 1473 523.074 1471.79 518.824C1470.62 510.873 1476.47 505.057 1481.72 499.854C1482.05 499.522 1482.38 499.193 1482.71 498.866C1485.06 496.142 1487.15 493.674 1489.31 491.134C1490.51 489.712 1491.74 488.267 1493.04 486.741C1495 484.491 1497.42 482.241 1500.33 481.241C1500.79 481.074 1501.25 480.949 1501.71 480.866C1502.79 480.657 1503.92 480.657 1505 480.657C1506.08 480.657 1507.21 480.657 1508.25 480.824C1508.71 480.907 1509.17 481.032 1509.62 481.199C1512.54 482.199 1515 484.449 1516.92 486.699C1519.27 489.423 1521.36 491.891 1523.52 494.43Z" fill="black" fill-opacity="0.54"/>
<path fill-rule="evenodd" clip-rule="evenodd" d="M1777.5 452.407C1771.75 452.407 1767.08 457.071 1767.08 462.824C1767.08 468.577 1771.75 473.241 1777.5 473.241C1783.25 473.241 1787.92 468.577 1787.92 462.824C1787.92 457.071 1783.25 452.407 1777.5 452.407ZM1758.75 469.074C1753 469.074 1748.33 473.738 1748.33 479.491C1748.33 485.244 1753 489.907 1758.75 489.907C1764.5 489.907 1769.17 485.244 1769.17 479.491C1769.17 473.738 1764.5 469.074 1758.75 469.074ZM1792.08 462.824C1792.08 457.071 1796.75 452.407 1802.5 452.407C1808.25 452.407 1812.92 457.071 1812.92 462.824C1812.92 468.577 1808.25 473.241 1802.5 473.241C1796.75 473.241 1792.08 468.577 1792.08 462.824ZM1821.25 469.074C1815.5 469.074 1810.83 473.738 1810.83 479.491C1810.83 485.244 1815.5 489.907 1821.25 489.907C1827 489.907 1831.67 485.244 1831.67 479.491C1831.67 473.738 1827 469.074 1821.25 469.074ZM1808.52 497.43C1809.72 498.853 1810.95 500.298 1812.25 501.824C1812.57 502.149 1812.9 502.475 1813.24 502.805C1818.48 508.01 1824.34 513.83 1823.12 521.824C1821.92 526.032 1818.87 530.282 1813.42 531.491C1812.02 531.759 1809.2 531.392 1805.57 530.918C1801.31 530.362 1795.91 529.657 1790.33 529.657H1789.58C1784.05 529.657 1778.7 530.362 1774.45 530.92C1770.77 531.406 1767.91 531.781 1766.5 531.491C1761.04 530.282 1758 526.074 1756.79 521.824C1755.62 513.873 1761.47 508.057 1766.72 502.854C1767.05 502.522 1767.38 502.193 1767.71 501.866C1770.06 499.142 1772.15 496.674 1774.31 494.134C1775.51 492.712 1776.74 491.267 1778.04 489.741C1780 487.491 1782.42 485.241 1785.33 484.241C1785.79 484.074 1786.25 483.949 1786.71 483.866C1787.79 483.657 1788.92 483.657 1790 483.657C1791.08 483.657 1792.21 483.657 1793.25 483.824C1793.71 483.907 1794.17 484.032 1794.62 484.199C1797.54 485.199 1800 487.449 1801.92 489.699C1804.27 492.423 1806.36 494.891 1808.52 497.43Z" fill="black" fill-opacity="0.54"/>
<path fill-rule="evenodd" clip-rule="evenodd" d="M200.5 655.407C194.747 655.407 190.083 660.071 190.083 665.824C190.083 671.577 194.747 676.241 200.5 676.241C206.253 676.241 210.917 671.577 210.917 665.824C210.917 660.071 206.253 655.407 200.5 655.407ZM181.75 672.074C175.997 672.074 171.333 676.738 171.333 682.491C171.333 688.244 175.997 692.907 181.75 692.907C187.503 692.907 192.167 688.244 192.167 682.491C192.167 676.738 187.503 672.074 181.75 672.074ZM215.083 665.824C215.083 660.071 219.747 655.407 225.5 655.407C231.253 655.407 235.917 660.071 235.917 665.824C235.917 671.577 231.253 676.241 225.5 676.241C219.747 676.241 215.083 671.577 215.083 665.824ZM244.25 672.074C238.497 672.074 233.833 676.738 233.833 682.491C233.833 688.244 238.497 692.907 244.25 692.907C250.003 692.907 254.667 688.244 254.667 682.491C254.667 676.738 250.003 672.074 244.25 672.074ZM231.515 700.43C232.722 701.853 233.949 703.298 235.25 704.824C235.575 705.149 235.904 705.475 236.235 705.805C241.478 711.01 247.34 716.83 246.125 724.824C244.917 729.032 241.875 733.282 236.417 734.491C235.017 734.759 232.205 734.392 228.57 733.918C224.307 733.362 218.911 732.657 213.333 732.657H212.583C207.053 732.657 201.701 733.362 197.454 733.92C193.767 734.406 190.914 734.781 189.5 734.491C184.042 733.282 181 729.074 179.792 724.824C178.617 716.873 184.475 711.057 189.716 705.854C190.05 705.522 190.381 705.193 190.708 704.866C193.059 702.142 195.152 699.674 197.307 697.134C198.514 695.712 199.74 694.267 201.042 692.741C203 690.491 205.417 688.241 208.333 687.241C208.792 687.074 209.25 686.949 209.708 686.866C210.792 686.657 211.917 686.657 213 686.657C214.083 686.657 215.208 686.657 216.25 686.824C216.708 686.907 217.167 687.032 217.625 687.199C220.542 688.199 223 690.449 224.917 692.699C227.267 695.423 229.36 697.891 231.515 700.43Z" fill="black" fill-opacity="0.54"/>
<path fill-rule="evenodd" clip-rule="evenodd" d="M67.5 866.407C61.7471 866.407 57.0834 871.071 57.0834 876.824C57.0834 882.577 61.7471 887.241 67.5 887.241C73.253 887.241 77.9167 882.577 77.9167 876.824C77.9167 871.071 73.253 866.407 67.5 866.407ZM48.75 883.074C42.9971 883.074 38.3334 887.738 38.3334 893.491C38.3334 899.244 42.9971 903.907 48.75 903.907C54.503 903.907 59.1667 899.244 59.1667 893.491C59.1667 887.738 54.503 883.074 48.75 883.074ZM82.0834 876.824C82.0834 871.071 86.7471 866.407 92.5001 866.407C98.253 866.407 102.917 871.071 102.917 876.824C102.917 882.577 98.253 887.241 92.5001 887.241C86.7471 887.241 82.0834 882.577 82.0834 876.824ZM111.25 883.074C105.497 883.074 100.833 887.738 100.833 893.491C100.833 899.244 105.497 903.907 111.25 903.907C117.003 903.907 121.667 899.244 121.667 893.491C121.667 887.738 117.003 883.074 111.25 883.074ZM98.5153 911.43C99.7223 912.853 100.949 914.298 102.25 915.824C102.575 916.149 102.904 916.475 103.235 916.805C108.478 922.01 114.34 927.83 113.125 935.824C111.917 940.032 108.875 944.282 103.417 945.491C102.017 945.759 99.205 945.392 95.57 944.918C91.3067 944.362 85.9111 943.657 80.3333 943.657H79.5833C74.0525 943.657 68.7007 944.362 64.4544 944.92C60.7673 945.406 57.9137 945.781 56.5 945.491C51.0417 944.282 48 940.074 46.7917 935.824C45.6166 927.873 51.4747 922.057 56.7157 916.854C57.0497 916.522 57.3813 916.193 57.7083 915.866C60.0587 913.142 62.1522 910.674 64.3072 908.134C65.5141 906.712 66.7403 905.267 68.0417 903.741C70 901.491 72.4167 899.241 75.3333 898.241C75.7917 898.074 76.25 897.949 76.7083 897.866C77.7917 897.657 78.9167 897.657 80 897.657C81.0833 897.657 82.2083 897.657 83.25 897.824C83.7083 897.907 84.1667 898.032 84.625 898.199C87.5417 899.199 90 901.449 91.9167 903.699C94.2669 906.423 96.3604 908.891 98.5153 911.43Z" fill="black" fill-opacity="0.54"/>
<path fill-rule="evenodd" clip-rule="evenodd" d="M352.5 866.407C346.747 866.407 342.083 871.071 342.083 876.824C342.083 882.577 346.747 887.241 352.5 887.241C358.253 887.241 362.917 882.577 362.917 876.824C362.917 871.071 358.253 866.407 352.5 866.407ZM333.75 883.074C327.997 883.074 323.333 887.738 323.333 893.491C323.333 899.244 327.997 903.907 333.75 903.907C339.503 903.907 344.167 899.244 344.167 893.491C344.167 887.738 339.503 883.074 333.75 883.074ZM367.083 876.824C367.083 871.071 371.747 866.407 377.5 866.407C383.253 866.407 387.917 871.071 387.917 876.824C387.917 882.577 383.253 887.241 377.5 887.241C371.747 887.241 367.083 882.577 367.083 876.824ZM396.25 883.074C390.497 883.074 385.833 887.738 385.833 893.491C385.833 899.244 390.497 903.907 396.25 903.907C402.003 903.907 406.667 899.244 406.667 893.491C406.667 887.738 402.003 883.074 396.25 883.074ZM383.515 911.43C384.722 912.853 385.949 914.298 387.25 915.824C387.575 916.149 387.904 916.475 388.235 916.805C393.478 922.01 399.34 927.83 398.125 935.824C396.917 940.032 393.875 944.282 388.417 945.491C387.017 945.759 384.205 945.392 380.57 944.918C376.307 944.362 370.911 943.657 365.333 943.657H364.583C359.053 943.657 353.701 944.362 349.454 944.92C345.767 945.406 342.914 945.781 341.5 945.491C336.042 944.282 333 940.074 331.792 935.824C330.617 927.873 336.475 922.057 341.716 916.854C342.05 916.522 342.381 916.193 342.708 915.866C345.059 913.142 347.152 910.674 349.307 908.134C350.514 906.712 351.74 905.267 353.042 903.741C355 901.491 357.417 899.241 360.333 898.241C360.792 898.074 361.25 897.949 361.708 897.866C362.792 897.657 363.917 897.657 365 897.657C366.083 897.657 367.208 897.657 368.25 897.824C368.708 897.907 369.167 898.032 369.625 898.199C372.542 899.199 375 901.449 376.917 903.699C379.267 906.423 381.36 908.891 383.515 911.43Z" fill="black" fill-opacity="0.54"/>
<path fill-rule="evenodd" clip-rule="evenodd" d="M485.5 659.407C479.747 659.407 475.083 664.071 475.083 669.824C475.083 675.577 479.747 680.241 485.5 680.241C491.253 680.241 495.917 675.577 495.917 669.824C495.917 664.071 491.253 659.407 485.5 659.407ZM466.75 676.074C460.997 676.074 456.333 680.738 456.333 686.491C456.333 692.244 460.997 696.907 466.75 696.907C472.503 696.907 477.167 692.244 477.167 686.491C477.167 680.738 472.503 676.074 466.75 676.074ZM500.083 669.824C500.083 664.071 504.747 659.407 510.5 659.407C516.253 659.407 520.917 664.071 520.917 669.824C520.917 675.577 516.253 680.241 510.5 680.241C504.747 680.241 500.083 675.577 500.083 669.824ZM529.25 676.074C523.497 676.074 518.833 680.738 518.833 686.491C518.833 692.244 523.497 696.907 529.25 696.907C535.003 696.907 539.667 692.244 539.667 686.491C539.667 680.738 535.003 676.074 529.25 676.074ZM516.515 704.43C517.722 705.853 518.949 707.298 520.25 708.824C520.575 709.149 520.904 709.475 521.235 709.805C526.478 715.01 532.34 720.83 531.125 728.824C529.917 733.032 526.875 737.282 521.417 738.491C520.017 738.759 517.205 738.392 513.57 737.918C509.307 737.362 503.911 736.657 498.333 736.657H497.583C492.053 736.657 486.701 737.362 482.454 737.92C478.767 738.406 475.914 738.781 474.5 738.491C469.042 737.282 466 733.074 464.792 728.824C463.617 720.873 469.475 715.057 474.716 709.854C475.05 709.522 475.381 709.193 475.708 708.866C478.059 706.142 480.152 703.674 482.307 701.134C483.514 699.712 484.74 698.267 486.042 696.741C488 694.491 490.417 692.241 493.333 691.241C493.792 691.074 494.25 690.949 494.708 690.866C495.792 690.657 496.917 690.657 498 690.657C499.083 690.657 500.208 690.657 501.25 690.824C501.708 690.907 502.167 691.032 502.625 691.199C505.542 692.199 508 694.449 509.917 696.699C512.267 699.423 514.36 701.891 516.515 704.43Z" fill="black" fill-opacity="0.54"/>
<path fill-rule="evenodd" clip-rule="evenodd" d="M637.5 866.407C631.747 866.407 627.083 871.071 627.083 876.824C627.083 882.577 631.747 887.241 637.5 887.241C643.253 887.241 647.917 882.577 647.917 876.824C647.917 871.071 643.253 866.407 637.5 866.407ZM618.75 883.074C612.997 883.074 608.333 887.738 608.333 893.491C608.333 899.244 612.997 903.907 618.75 903.907C624.503 903.907 629.167 899.244 629.167 893.491C629.167 887.738 624.503 883.074 618.75 883.074ZM652.083 876.824C652.083 871.071 656.747 866.407 662.5 866.407C668.253 866.407 672.917 871.071 672.917 876.824C672.917 882.577 668.253 887.241 662.5 887.241C656.747 887.241 652.083 882.577 652.083 876.824ZM681.25 883.074C675.497 883.074 670.833 887.738 670.833 893.491C670.833 899.244 675.497 903.907 681.25 903.907C687.003 903.907 691.667 899.244 691.667 893.491C691.667 887.738 687.003 883.074 681.25 883.074ZM668.515 911.43C669.722 912.853 670.948 914.298 672.25 915.824C672.575 916.149 672.904 916.475 673.235 916.805C678.478 922.01 684.34 927.83 683.125 935.824C681.917 940.032 678.875 944.282 673.417 945.491C672.017 945.759 669.205 945.392 665.57 944.918C661.307 944.362 655.911 943.657 650.333 943.657H649.583C644.052 943.657 638.701 944.362 634.454 944.92C630.767 945.406 627.914 945.781 626.5 945.491C621.042 944.282 618 940.074 616.792 935.824C615.617 927.873 621.475 922.057 626.716 916.854C627.05 916.522 627.381 916.193 627.708 915.866C630.059 913.142 632.152 910.674 634.307 908.134C635.514 906.712 636.74 905.267 638.042 903.741C640 901.491 642.417 899.241 645.333 898.241C645.792 898.074 646.25 897.949 646.708 897.866C647.792 897.657 648.917 897.657 650 897.657C651.083 897.657 652.208 897.657 653.25 897.824C653.708 897.907 654.167 898.032 654.625 898.199C657.542 899.199 660 901.449 661.917 903.699C664.267 906.423 666.36 908.891 668.515 911.43Z" fill="black" fill-opacity="0.54"/>
<path fill-rule="evenodd" clip-rule="evenodd" d="M770.5 645.407C764.747 645.407 760.083 650.071 760.083 655.824C760.083 661.577 764.747 666.241 770.5 666.241C776.253 666.241 780.917 661.577 780.917 655.824C780.917 650.071 776.253 645.407 770.5 645.407ZM751.75 662.074C745.997 662.074 741.333 666.738 741.333 672.491C741.333 678.244 745.997 682.907 751.75 682.907C757.503 682.907 762.167 678.244 762.167 672.491C762.167 666.738 757.503 662.074 751.75 662.074ZM785.083 655.824C785.083 650.071 789.747 645.407 795.5 645.407C801.253 645.407 805.917 650.071 805.917 655.824C805.917 661.577 801.253 666.241 795.5 666.241C789.747 666.241 785.083 661.577 785.083 655.824ZM814.25 662.074C808.497 662.074 803.833 666.738 803.833 672.491C803.833 678.244 808.497 682.907 814.25 682.907C820.003 682.907 824.667 678.244 824.667 672.491C824.667 666.738 820.003 662.074 814.25 662.074ZM801.515 690.43C802.722 691.853 803.948 693.298 805.25 694.824C805.575 695.149 805.904 695.475 806.235 695.805C811.478 701.01 817.34 706.83 816.125 714.824C814.917 719.032 811.875 723.282 806.417 724.491C805.017 724.759 802.205 724.392 798.57 723.918C794.307 723.362 788.911 722.657 783.333 722.657H782.583C777.052 722.657 771.701 723.362 767.454 723.92C763.767 724.406 760.914 724.781 759.5 724.491C754.042 723.282 751 719.074 749.792 714.824C748.617 706.873 754.475 701.057 759.716 695.854C760.05 695.522 760.381 695.193 760.708 694.866C763.059 692.142 765.152 689.674 767.307 687.134C768.514 685.712 769.74 684.267 771.042 682.741C773 680.491 775.417 678.241 778.333 677.241C778.792 677.074 779.25 676.949 779.708 676.866C780.792 676.657 781.917 676.657 783 676.657C784.083 676.657 785.208 676.657 786.25 676.824C786.708 676.907 787.167 677.032 787.625 677.199C790.542 678.199 793 680.449 794.917 682.699C797.267 685.423 799.36 687.891 801.515 690.43Z" fill="black" fill-opacity="0.54"/>
<path fill-rule="evenodd" clip-rule="evenodd" d="M1055.5 645.407C1049.75 645.407 1045.08 650.071 1045.08 655.824C1045.08 661.577 1049.75 666.241 1055.5 666.241C1061.25 666.241 1065.92 661.577 1065.92 655.824C1065.92 650.071 1061.25 645.407 1055.5 645.407ZM1036.75 662.074C1031 662.074 1026.33 666.738 1026.33 672.491C1026.33 678.244 1031 682.907 1036.75 682.907C1042.5 682.907 1047.17 678.244 1047.17 672.491C1047.17 666.738 1042.5 662.074 1036.75 662.074ZM1070.08 655.824C1070.08 650.071 1074.75 645.407 1080.5 645.407C1086.25 645.407 1090.92 650.071 1090.92 655.824C1090.92 661.577 1086.25 666.241 1080.5 666.241C1074.75 666.241 1070.08 661.577 1070.08 655.824ZM1099.25 662.074C1093.5 662.074 1088.83 666.738 1088.83 672.491C1088.83 678.244 1093.5 682.907 1099.25 682.907C1105 682.907 1109.67 678.244 1109.67 672.491C1109.67 666.738 1105 662.074 1099.25 662.074ZM1086.52 690.43C1087.72 691.853 1088.95 693.298 1090.25 694.824C1090.57 695.149 1090.9 695.475 1091.24 695.805C1096.48 701.01 1102.34 706.83 1101.12 714.824C1099.92 719.032 1096.87 723.282 1091.42 724.491C1090.02 724.759 1087.2 724.392 1083.57 723.918C1079.31 723.362 1073.91 722.657 1068.33 722.657H1067.58C1062.05 722.657 1056.7 723.362 1052.45 723.92C1048.77 724.406 1045.91 724.781 1044.5 724.491C1039.04 723.282 1036 719.074 1034.79 714.824C1033.62 706.873 1039.47 701.057 1044.72 695.854C1045.05 695.522 1045.38 695.193 1045.71 694.866C1048.06 692.142 1050.15 689.674 1052.31 687.134C1053.51 685.712 1054.74 684.267 1056.04 682.741C1058 680.491 1060.42 678.241 1063.33 677.241C1063.79 677.074 1064.25 676.949 1064.71 676.866C1065.79 676.657 1066.92 676.657 1068 676.657C1069.08 676.657 1070.21 676.657 1071.25 676.824C1071.71 676.907 1072.17 677.032 1072.62 677.199C1075.54 678.199 1078 680.449 1079.92 682.699C1082.27 685.423 1084.36 687.891 1086.52 690.43Z" fill="black" fill-opacity="0.54"/>
<path fill-rule="evenodd" clip-rule="evenodd" d="M1340.5 645.407C1334.75 645.407 1330.08 650.071 1330.08 655.824C1330.08 661.577 1334.75 666.241 1340.5 666.241C1346.25 666.241 1350.92 661.577 1350.92 655.824C1350.92 650.071 1346.25 645.407 1340.5 645.407ZM1321.75 662.074C1316 662.074 1311.33 666.738 1311.33 672.491C1311.33 678.244 1316 682.907 1321.75 682.907C1327.5 682.907 1332.17 678.244 1332.17 672.491C1332.17 666.738 1327.5 662.074 1321.75 662.074ZM1355.08 655.824C1355.08 650.071 1359.75 645.407 1365.5 645.407C1371.25 645.407 1375.92 650.071 1375.92 655.824C1375.92 661.577 1371.25 666.241 1365.5 666.241C1359.75 666.241 1355.08 661.577 1355.08 655.824ZM1384.25 662.074C1378.5 662.074 1373.83 666.738 1373.83 672.491C1373.83 678.244 1378.5 682.907 1384.25 682.907C1390 682.907 1394.67 678.244 1394.67 672.491C1394.67 666.738 1390 662.074 1384.25 662.074ZM1371.52 690.43C1372.72 691.853 1373.95 693.298 1375.25 694.824C1375.57 695.149 1375.9 695.475 1376.24 695.805C1381.48 701.01 1387.34 706.83 1386.12 714.824C1384.92 719.032 1381.87 723.282 1376.42 724.491C1375.02 724.759 1372.2 724.392 1368.57 723.918C1364.31 723.362 1358.91 722.657 1353.33 722.657H1352.58C1347.05 722.657 1341.7 723.362 1337.45 723.92C1333.77 724.406 1330.91 724.781 1329.5 724.491C1324.04 723.282 1321 719.074 1319.79 714.824C1318.62 706.873 1324.47 701.057 1329.72 695.854C1330.05 695.522 1330.38 695.193 1330.71 694.866C1333.06 692.142 1335.15 689.674 1337.31 687.134C1338.51 685.712 1339.74 684.267 1341.04 682.741C1343 680.491 1345.42 678.241 1348.33 677.241C1348.79 677.074 1349.25 676.949 1349.71 676.866C1350.79 676.657 1351.92 676.657 1353 676.657C1354.08 676.657 1355.21 676.657 1356.25 676.824C1356.71 676.907 1357.17 677.032 1357.62 677.199C1360.54 678.199 1363 680.449 1364.92 682.699C1367.27 685.423 1369.36 687.891 1371.52 690.43Z" fill="black" fill-opacity="0.54"/>
<path fill-rule="evenodd" clip-rule="evenodd" d="M1626.5 659.407C1620.75 659.407 1616.08 664.071 1616.08 669.824C1616.08 675.577 1620.75 680.241 1626.5 680.241C1632.25 680.241 1636.92 675.577 1636.92 669.824C1636.92 664.071 1632.25 659.407 1626.5 659.407ZM1607.75 676.074C1602 676.074 1597.33 680.738 1597.33 686.491C1597.33 692.244 1602 696.907 1607.75 696.907C1613.5 696.907 1618.17 692.244 1618.17 686.491C1618.17 680.738 1613.5 676.074 1607.75 676.074ZM1641.08 669.824C1641.08 664.071 1645.75 659.407 1651.5 659.407C1657.25 659.407 1661.92 664.071 1661.92 669.824C1661.92 675.577 1657.25 680.241 1651.5 680.241C1645.75 680.241 1641.08 675.577 1641.08 669.824ZM1670.25 676.074C1664.5 676.074 1659.83 680.738 1659.83 686.491C1659.83 692.244 1664.5 696.907 1670.25 696.907C1676 696.907 1680.67 692.244 1680.67 686.491C1680.67 680.738 1676 676.074 1670.25 676.074ZM1657.52 704.43C1658.72 705.853 1659.95 707.298 1661.25 708.824C1661.57 709.149 1661.9 709.475 1662.24 709.805C1667.48 715.01 1673.34 720.83 1672.12 728.824C1670.92 733.032 1667.87 737.282 1662.42 738.491C1661.02 738.759 1658.2 738.392 1654.57 737.918C1650.31 737.362 1644.91 736.657 1639.33 736.657H1638.58C1633.05 736.657 1627.7 737.362 1623.45 737.92C1619.77 738.406 1616.91 738.781 1615.5 738.491C1610.04 737.282 1607 733.074 1605.79 728.824C1604.62 720.873 1610.47 715.057 1615.72 709.854C1616.05 709.522 1616.38 709.193 1616.71 708.866C1619.06 706.142 1621.15 703.674 1623.31 701.134C1624.51 699.712 1625.74 698.267 1627.04 696.741C1629 694.491 1631.42 692.241 1634.33 691.241C1634.79 691.074 1635.25 690.949 1635.71 690.866C1636.79 690.657 1637.92 690.657 1639 690.657C1640.08 690.657 1641.21 690.657 1642.25 690.824C1642.71 690.907 1643.17 691.032 1643.62 691.199C1646.54 692.199 1649 694.449 1650.92 696.699C1653.27 699.423 1655.36 701.891 1657.52 704.43Z" fill="black" fill-opacity="0.54"/>
<path fill-rule="evenodd" clip-rule="evenodd" d="M1207.5 866.407C1201.75 866.407 1197.08 871.071 1197.08 876.824C1197.08 882.577 1201.75 887.241 1207.5 887.241C1213.25 887.241 1217.92 882.577 1217.92 876.824C1217.92 871.071 1213.25 866.407 1207.5 866.407ZM1188.75 883.074C1183 883.074 1178.33 887.738 1178.33 893.491C1178.33 899.244 1183 903.907 1188.75 903.907C1194.5 903.907 1199.17 899.244 1199.17 893.491C1199.17 887.738 1194.5 883.074 1188.75 883.074ZM1222.08 876.824C1222.08 871.071 1226.75 866.407 1232.5 866.407C1238.25 866.407 1242.92 871.071 1242.92 876.824C1242.92 882.577 1238.25 887.241 1232.5 887.241C1226.75 887.241 1222.08 882.577 1222.08 876.824ZM1251.25 883.074C1245.5 883.074 1240.83 887.738 1240.83 893.491C1240.83 899.244 1245.5 903.907 1251.25 903.907C1257 903.907 1261.67 899.244 1261.67 893.491C1261.67 887.738 1257 883.074 1251.25 883.074ZM1238.52 911.43C1239.72 912.853 1240.95 914.298 1242.25 915.824C1242.57 916.149 1242.9 916.475 1243.24 916.805C1248.48 922.01 1254.34 927.83 1253.12 935.824C1251.92 940.032 1248.87 944.282 1243.42 945.491C1242.02 945.759 1239.2 945.392 1235.57 944.918C1231.31 944.362 1225.91 943.657 1220.33 943.657H1219.58C1214.05 943.657 1208.7 944.362 1204.45 944.92C1200.77 945.406 1197.91 945.781 1196.5 945.491C1191.04 944.282 1188 940.074 1186.79 935.824C1185.62 927.873 1191.47 922.057 1196.72 916.854C1197.05 916.522 1197.38 916.193 1197.71 915.866C1200.06 913.142 1202.15 910.674 1204.31 908.134C1205.51 906.712 1206.74 905.267 1208.04 903.741C1210 901.491 1212.42 899.241 1215.33 898.241C1215.79 898.074 1216.25 897.949 1216.71 897.866C1217.79 897.657 1218.92 897.657 1220 897.657C1221.08 897.657 1222.21 897.657 1223.25 897.824C1223.71 897.907 1224.17 898.032 1224.62 898.199C1227.54 899.199 1230 901.449 1231.92 903.699C1234.27 906.423 1236.36 908.891 1238.52 911.43Z" fill="black" fill-opacity="0.54"/>
<path fill-rule="evenodd" clip-rule="evenodd" d="M1500.5 866.407C1494.75 866.407 1490.08 871.071 1490.08 876.824C1490.08 882.577 1494.75 887.241 1500.5 887.241C1506.25 887.241 1510.92 882.577 1510.92 876.824C1510.92 871.071 1506.25 866.407 1500.5 866.407ZM1481.75 883.074C1476 883.074 1471.33 887.738 1471.33 893.491C1471.33 899.244 1476 903.907 1481.75 903.907C1487.5 903.907 1492.17 899.244 1492.17 893.491C1492.17 887.738 1487.5 883.074 1481.75 883.074ZM1515.08 876.824C1515.08 871.071 1519.75 866.407 1525.5 866.407C1531.25 866.407 1535.92 871.071 1535.92 876.824C1535.92 882.577 1531.25 887.241 1525.5 887.241C1519.75 887.241 1515.08 882.577 1515.08 876.824ZM1544.25 883.074C1538.5 883.074 1533.83 887.738 1533.83 893.491C1533.83 899.244 1538.5 903.907 1544.25 903.907C1550 903.907 1554.67 899.244 1554.67 893.491C1554.67 887.738 1550 883.074 1544.25 883.074ZM1531.52 911.43C1532.72 912.853 1533.95 914.298 1535.25 915.824C1535.57 916.149 1535.9 916.475 1536.24 916.805C1541.48 922.01 1547.34 927.83 1546.12 935.824C1544.92 940.032 1541.87 944.282 1536.42 945.491C1535.02 945.759 1532.2 945.392 1528.57 944.918C1524.31 944.362 1518.91 943.657 1513.33 943.657H1512.58C1507.05 943.657 1501.7 944.362 1497.45 944.92C1493.77 945.406 1490.91 945.781 1489.5 945.491C1484.04 944.282 1481 940.074 1479.79 935.824C1478.62 927.873 1484.47 922.057 1489.72 916.854C1490.05 916.522 1490.38 916.193 1490.71 915.866C1493.06 913.142 1495.15 910.674 1497.31 908.134C1498.51 906.712 1499.74 905.267 1501.04 903.741C1503 901.491 1505.42 899.241 1508.33 898.241C1508.79 898.074 1509.25 897.949 1509.71 897.866C1510.79 897.657 1511.92 897.657 1513 897.657C1514.08 897.657 1515.21 897.657 1516.25 897.824C1516.71 897.907 1517.17 898.032 1517.62 898.199C1520.54 899.199 1523 901.449 1524.92 903.699C1527.27 906.423 1529.36 908.891 1531.52 911.43Z" fill="black" fill-opacity="0.54"/>
<path fill-rule="evenodd" clip-rule="evenodd" d="M1781.5 866.407C1775.75 866.407 1771.08 871.071 1771.08 876.824C1771.08 882.577 1775.75 887.241 1781.5 887.241C1787.25 887.241 1791.92 882.577 1791.92 876.824C1791.92 871.071 1787.25 866.407 1781.5 866.407ZM1762.75 883.074C1757 883.074 1752.33 887.738 1752.33 893.491C1752.33 899.244 1757 903.907 1762.75 903.907C1768.5 903.907 1773.17 899.244 1773.17 893.491C1773.17 887.738 1768.5 883.074 1762.75 883.074ZM1796.08 876.824C1796.08 871.071 1800.75 866.407 1806.5 866.407C1812.25 866.407 1816.92 871.071 1816.92 876.824C1816.92 882.577 1812.25 887.241 1806.5 887.241C1800.75 887.241 1796.08 882.577 1796.08 876.824ZM1825.25 883.074C1819.5 883.074 1814.83 887.738 1814.83 893.491C1814.83 899.244 1819.5 903.907 1825.25 903.907C1831 903.907 1835.67 899.244 1835.67 893.491C1835.67 887.738 1831 883.074 1825.25 883.074ZM1812.52 911.43C1813.72 912.853 1814.95 914.298 1816.25 915.824C1816.57 916.149 1816.9 916.475 1817.24 916.805C1822.48 922.01 1828.34 927.83 1827.12 935.824C1825.92 940.032 1822.87 944.282 1817.42 945.491C1816.02 945.759 1813.2 945.392 1809.57 944.918C1805.31 944.362 1799.91 943.657 1794.33 943.657H1793.58C1788.05 943.657 1782.7 944.362 1778.45 944.92C1774.77 945.406 1771.91 945.781 1770.5 945.491C1765.04 944.282 1762 940.074 1760.79 935.824C1759.62 927.873 1765.47 922.057 1770.72 916.854C1771.05 916.522 1771.38 916.193 1771.71 915.866C1774.06 913.142 1776.15 910.674 1778.31 908.134C1779.51 906.712 1780.74 905.267 1782.04 903.741C1784 901.491 1786.42 899.241 1789.33 898.241C1789.79 898.074 1790.25 897.949 1790.71 897.866C1791.79 897.657 1792.92 897.657 1794 897.657C1795.08 897.657 1796.21 897.657 1797.25 897.824C1797.71 897.907 1798.17 898.032 1798.62 898.199C1801.54 899.199 1804 901.449 1805.92 903.699C1808.27 906.423 1810.36 908.891 1812.52 911.43Z" fill="black" fill-opacity="0.54"/>
<path fill-rule="evenodd" clip-rule="evenodd" d="M1340.5 220.407C1334.75 220.407 1330.08 225.071 1330.08 230.824C1330.08 236.577 1334.75 241.241 1340.5 241.241C1346.25 241.241 1350.92 236.577 1350.92 230.824C1350.92 225.071 1346.25 220.407 1340.5 220.407ZM1321.75 237.074C1316 237.074 1311.33 241.738 1311.33 247.491C1311.33 253.244 1316 257.907 1321.75 257.907C1327.5 257.907 1332.17 253.244 1332.17 247.491C1332.17 241.738 1327.5 237.074 1321.75 237.074ZM1355.08 230.824C1355.08 225.071 1359.75 220.407 1365.5 220.407C1371.25 220.407 1375.92 225.071 1375.92 230.824C1375.92 236.577 1371.25 241.241 1365.5 241.241C1359.75 241.241 1355.08 236.577 1355.08 230.824ZM1384.25 237.074C1378.5 237.074 1373.83 241.738 1373.83 247.491C1373.83 253.244 1378.5 257.907 1384.25 257.907C1390 257.907 1394.67 253.244 1394.67 247.491C1394.67 241.738 1390 237.074 1384.25 237.074ZM1371.52 265.43C1372.72 266.853 1373.95 268.298 1375.25 269.824C1375.57 270.149 1375.9 270.475 1376.24 270.805C1381.48 276.01 1387.34 281.83 1386.12 289.824C1384.92 294.032 1381.87 298.282 1376.42 299.491C1375.02 299.759 1372.2 299.392 1368.57 298.918C1364.31 298.362 1358.91 297.657 1353.33 297.657H1352.58C1347.05 297.657 1341.7 298.362 1337.45 298.92C1333.77 299.406 1330.91 299.781 1329.5 299.491C1324.04 298.282 1321 294.074 1319.79 289.824C1318.62 281.873 1324.47 276.057 1329.72 270.854C1330.05 270.522 1330.38 270.193 1330.71 269.866C1333.06 267.142 1335.15 264.674 1337.31 262.134C1338.51 260.712 1339.74 259.267 1341.04 257.741C1343 255.491 1345.42 253.241 1348.33 252.241C1348.79 252.074 1349.25 251.949 1349.71 251.866C1350.79 251.657 1351.92 251.657 1353 251.657C1354.08 251.657 1355.21 251.657 1356.25 251.824C1356.71 251.907 1357.17 252.032 1357.62 252.199C1360.54 253.199 1363 255.449 1364.92 257.699C1367.27 260.423 1369.36 262.891 1371.52 265.43Z" fill="black" fill-opacity="0.54"/>
<circle cx="947.5" cy="902.5" r="60.5" fill="white" fill-opacity="0.15"/>
<path fill-rule="evenodd" clip-rule="evenodd" d="M934.5 862.407C928.747 862.407 924.083 867.071 924.083 872.824C924.083 878.577 928.747 883.241 934.5 883.241C940.253 883.241 944.917 878.577 944.917 872.824C944.917 867.071 940.253 862.407 934.5 862.407ZM915.75 879.074C909.997 879.074 905.333 883.738 905.333 889.491C905.333 895.244 909.997 899.907 915.75 899.907C921.503 899.907 926.167 895.244 926.167 889.491C926.167 883.738 921.503 879.074 915.75 879.074ZM949.083 872.824C949.083 867.071 953.747 862.407 959.5 862.407C965.253 862.407 969.917 867.071 969.917 872.824C969.917 878.577 965.253 883.241 959.5 883.241C953.747 883.241 949.083 878.577 949.083 872.824ZM978.25 879.074C972.497 879.074 967.833 883.738 967.833 889.491C967.833 895.244 972.497 899.907 978.25 899.907C984.003 899.907 988.667 895.244 988.667 889.491C988.667 883.738 984.003 879.074 978.25 879.074ZM965.515 907.43C966.722 908.853 967.948 910.298 969.25 911.824C969.575 912.149 969.904 912.475 970.235 912.805C975.478 918.01 981.34 923.83 980.125 931.824C978.917 936.032 975.875 940.282 970.417 941.491C969.017 941.759 966.205 941.392 962.57 940.918C958.307 940.362 952.911 939.657 947.333 939.657H946.583C941.052 939.657 935.701 940.362 931.454 940.92C927.767 941.406 924.914 941.781 923.5 941.491C918.042 940.282 915 936.074 913.792 931.824C912.617 923.873 918.475 918.057 923.716 912.854C924.05 912.522 924.381 912.193 924.708 911.866C927.059 909.142 929.152 906.674 931.307 904.134C932.514 902.712 933.74 901.267 935.042 899.741C937 897.491 939.417 895.241 942.333 894.241C942.792 894.074 943.25 893.949 943.708 893.866C944.792 893.657 945.917 893.657 947 893.657C948.083 893.657 949.208 893.657 950.25 893.824C950.708 893.907 951.167 894.032 951.625 894.199C954.542 895.199 957 897.449 958.917 899.699C961.267 902.423 963.36 904.891 965.515 907.43Z" fill="black" fill-opacity="0.54"/>
<circle cx="375.5" cy="67.5" r="60.5" fill="white" fill-opacity="0.15"/>
<path fill-rule="evenodd" clip-rule="evenodd" d="M362.5 27.4075C356.747 27.4075 352.083 32.0712 352.083 37.8241C352.083 43.5771 356.747 48.2408 362.5 48.2408C368.253 48.2408 372.917 43.5771 372.917 37.8241C372.917 32.0712 368.253 27.4075 362.5 27.4075ZM343.75 44.0741C337.997 44.0741 333.333 48.7378 333.333 54.4908C333.333 60.2438 337.997 64.9075 343.75 64.9075C349.503 64.9075 354.167 60.2438 354.167 54.4908C354.167 48.7378 349.503 44.0741 343.75 44.0741ZM377.083 37.8241C377.083 32.0712 381.747 27.4075 387.5 27.4075C393.253 27.4075 397.917 32.0712 397.917 37.8241C397.917 43.5771 393.253 48.2408 387.5 48.2408C381.747 48.2408 377.083 43.5771 377.083 37.8241ZM406.25 44.0741C400.497 44.0741 395.833 48.7378 395.833 54.4908C395.833 60.2438 400.497 64.9075 406.25 64.9075C412.003 64.9075 416.667 60.2438 416.667 54.4908C416.667 48.7378 412.003 44.0741 406.25 44.0741ZM393.515 72.4304C394.722 73.853 395.949 75.2983 397.25 76.8241C397.575 77.1488 397.904 77.4755 398.235 77.8046C403.478 83.0098 409.34 88.8297 408.125 96.8241C406.917 101.032 403.875 105.282 398.417 106.491C397.017 106.759 394.205 106.392 390.57 105.918C386.307 105.362 380.911 104.657 375.333 104.657H374.583C369.053 104.657 363.701 105.362 359.454 105.92C355.767 106.406 352.914 106.781 351.5 106.491C346.042 105.282 343 101.074 341.792 96.8241C340.617 88.8726 346.475 83.0568 351.716 77.8537C352.05 77.522 352.381 77.1929 352.708 76.8658C355.059 74.1415 357.152 71.6741 359.307 69.1342C360.514 67.7117 361.74 66.2665 363.042 64.7408C365 62.4908 367.417 60.2408 370.333 59.2408C370.792 59.0741 371.25 58.9491 371.708 58.8658C372.792 58.6575 373.917 58.6575 375 58.6575C376.083 58.6575 377.208 58.6575 378.25 58.8241C378.708 58.9075 379.167 59.0325 379.625 59.1991C382.542 60.1991 385 62.4491 386.917 64.6991C389.267 67.4233 391.36 69.8907 393.515 72.4304Z" fill="black" fill-opacity="0.54"/>
<circle cx="80.5" cy="67.5" r="60.5" fill="white" fill-opacity="0.15"/>
<path fill-rule="evenodd" clip-rule="evenodd" d="M67.5 27.4075C61.7471 27.4075 57.0834 32.0712 57.0834 37.8241C57.0834 43.5771 61.7471 48.2408 67.5 48.2408C73.253 48.2408 77.9167 43.5771 77.9167 37.8241C77.9167 32.0712 73.253 27.4075 67.5 27.4075ZM48.75 44.0741C42.9971 44.0741 38.3334 48.7378 38.3334 54.4908C38.3334 60.2438 42.9971 64.9075 48.75 64.9075C54.503 64.9075 59.1667 60.2438 59.1667 54.4908C59.1667 48.7378 54.503 44.0741 48.75 44.0741ZM82.0834 37.8241C82.0834 32.0712 86.7471 27.4075 92.5001 27.4075C98.253 27.4075 102.917 32.0712 102.917 37.8241C102.917 43.5771 98.253 48.2408 92.5001 48.2408C86.7471 48.2408 82.0834 43.5771 82.0834 37.8241ZM111.25 44.0741C105.497 44.0741 100.833 48.7378 100.833 54.4908C100.833 60.2438 105.497 64.9075 111.25 64.9075C117.003 64.9075 121.667 60.2438 121.667 54.4908C121.667 48.7378 117.003 44.0741 111.25 44.0741ZM98.5153 72.4304C99.7223 73.853 100.949 75.2983 102.25 76.8241C102.575 77.1488 102.904 77.4755 103.235 77.8046C108.478 83.0098 114.34 88.8297 113.125 96.8241C111.917 101.032 108.875 105.282 103.417 106.491C102.017 106.759 99.205 106.392 95.57 105.918C91.3067 105.362 85.9111 104.657 80.3333 104.657H79.5833C74.0525 104.657 68.7007 105.362 64.4544 105.92C60.7673 106.406 57.9137 106.781 56.5 106.491C51.0417 105.282 48 101.074 46.7917 96.8241C45.6166 88.8726 51.4747 83.0568 56.7157 77.8537C57.0497 77.522 57.3813 77.1929 57.7083 76.8658C60.0587 74.1415 62.1522 71.6741 64.3072 69.1342C65.5141 67.7117 66.7403 66.2665 68.0417 64.7408C70 62.4908 72.4167 60.2408 75.3333 59.2408C75.7917 59.0741 76.25 58.9491 76.7083 58.8658C77.7917 58.6575 78.9167 58.6575 80 58.6575C81.0833 58.6575 82.2083 58.6575 83.25 58.8241C83.7083 58.9075 84.1667 59.0325 84.625 59.1991C87.5417 60.1991 90 62.4491 91.9167 64.6991C94.2669 67.4233 96.3604 69.8907 98.5153 72.4304Z" fill="black" fill-opacity="0.54"/>
</svg>
